<svg width="146" height="146" viewBox="0 0 146 146" fill="none" xmlns="http://www.w3.org/2000/svg">
<g clip-path="url(#clip0_4_2025)">
<rect x="45" y="67" width="45" height="27" fill="white" fill-opacity="0.1"/>
<rect x="45" y="97" width="45" height="27" fill="white" fill-opacity="0.1"/>
<rect x="45" y="127" width="45" height="27" fill="white" fill-opacity="0.1"/>
<rect x="93" y="67" width="45" height="27" fill="white" fill-opacity="0.1"/>
<rect x="93" y="97" width="45" height="27" fill="white" fill-opacity="0.1"/>
<rect x="93" y="127" width="45" height="27" fill="white" fill-opacity="0.1"/>
<rect x="48" y="87" width="39" height="4" fill="white" fill-opacity="0.1"/>
<rect x="48" y="117" width="39" height="4" fill="white" fill-opacity="0.1"/>
<rect x="96" y="87" width="39" height="4" fill="white" fill-opacity="0.1"/>
<rect x="96" y="117" width="39" height="4" fill="white" fill-opacity="0.1"/>
<rect x="4" y="4" width="138" height="14" fill="white" fill-opacity="0.1"/>
<rect x="7" y="7" width="19" height="3" fill="white" fill-opacity="0.1"/>
<rect x="7" y="14" width="8" height="2" fill="white" fill-opacity="0.1"/>
<rect x="20" y="14" width="8" height="2" fill="white" fill-opacity="0.1"/>
<rect x="32" y="7" width="6" height="2" fill="white" fill-opacity="0.1"/>
<rect x="41" y="7" width="6" height="2" fill="white" fill-opacity="0.1"/>
<rect x="50" y="7" width="6" height="2" fill="white" fill-opacity="0.1"/>
<rect x="59" y="7" width="6" height="2" fill="white" fill-opacity="0.1"/>
<rect x="111" y="6" width="13" height="5" fill="white" fill-opacity="0.1"/>
<rect x="126" y="6" width="13" height="5" fill="white" fill-opacity="0.1"/>
<rect x="40" y="26" width="65" height="3" fill="white" fill-opacity="0.1"/>
<rect x="7" y="45" width="37" height="6" fill="white" fill-opacity="0.1"/>
<rect x="46" y="45" width="37" height="6" fill="white" fill-opacity="0.1"/>
<rect x="85" y="45" width="54" height="6" fill="white" fill-opacity="0.1"/>
<rect x="125" y="46" width="13" height="4" fill="white" fill-opacity="0.1"/>
<rect x="7" y="43" width="7" height="1" fill="white" fill-opacity="0.1"/>
<rect x="46" y="43" width="7" height="1" fill="white" fill-opacity="0.1"/>
<rect x="85" y="43" width="7" height="1" fill="white" fill-opacity="0.1"/>
<rect x="50" y="33" width="46" height="1" fill="white" fill-opacity="0.1"/>
<rect x="56" y="36" width="34" height="1" fill="white" fill-opacity="0.1"/>
<rect x="7" y="59" width="7" height="1" fill="white" fill-opacity="0.1"/>
<rect x="7" y="65" width="28" height="1" fill="white" fill-opacity="0.1"/>
<rect x="48" y="71" width="25" height="1" fill="white" fill-opacity="0.1"/>
<rect x="48" y="101" width="25" height="1" fill="white" fill-opacity="0.1"/>
<rect x="48" y="131" width="25" height="1" fill="white" fill-opacity="0.1"/>
<rect x="96" y="71" width="25" height="1" fill="white" fill-opacity="0.1"/>
<rect x="96" y="101" width="25" height="1" fill="white" fill-opacity="0.1"/>
<rect x="96" y="131" width="25" height="1" fill="white" fill-opacity="0.1"/>
<rect x="45" y="61" width="18" height="1" fill="white" fill-opacity="0.1"/>
<rect x="48" y="74" width="4" height="1" fill="white" fill-opacity="0.1"/>
<rect x="48" y="104" width="4" height="1" fill="white" fill-opacity="0.1"/>
<rect x="48" y="134" width="4" height="1" fill="white" fill-opacity="0.1"/>
<rect x="96" y="74" width="4" height="1" fill="white" fill-opacity="0.1"/>
<rect x="96" y="104" width="4" height="1" fill="white" fill-opacity="0.1"/>
<rect x="96" y="134" width="4" height="1" fill="white" fill-opacity="0.1"/>
<rect x="54" y="80" width="11" height="1" fill="white" fill-opacity="0.1"/>
<rect x="54" y="110" width="11" height="1" fill="white" fill-opacity="0.1"/>
<rect x="54" y="140" width="11" height="1" fill="white" fill-opacity="0.1"/>
<rect x="102" y="80" width="11" height="1" fill="white" fill-opacity="0.1"/>
<rect x="102" y="110" width="11" height="1" fill="white" fill-opacity="0.1"/>
<rect x="102" y="140" width="11" height="1" fill="white" fill-opacity="0.1"/>
<rect x="54" y="83" width="11" height="1" fill="white" fill-opacity="0.1"/>
<rect x="54" y="113" width="11" height="1" fill="white" fill-opacity="0.1"/>
<rect x="102" y="83" width="11" height="1" fill="white" fill-opacity="0.1"/>
<rect x="102" y="113" width="11" height="1" fill="white" fill-opacity="0.1"/>
<rect x="63" y="88" width="6" height="1" fill="white" fill-opacity="0.1"/>
<rect x="63" y="118" width="6" height="1" fill="white" fill-opacity="0.1"/>
<rect x="111" y="88" width="6" height="1" fill="white" fill-opacity="0.1"/>
<rect x="111" y="118" width="6" height="1" fill="white" fill-opacity="0.1"/>
<rect x="70.999" y="88" width="0.998883" height="1.40864" transform="rotate(-0.120609 70.999 88)" fill="white" fill-opacity="0.1"/>
<rect x="70.999" y="118" width="0.998883" height="1.40864" transform="rotate(-0.120609 70.999 118)" fill="white" fill-opacity="0.1"/>
<rect x="118.999" y="88" width="0.998883" height="1.40864" transform="rotate(-0.120609 118.999 88)" fill="white" fill-opacity="0.1"/>
<rect x="118.999" y="118" width="0.998883" height="1.40864" transform="rotate(-0.120609 118.999 118)" fill="white" fill-opacity="0.1"/>
<rect x="48" y="80" width="5" height="5" fill="white" fill-opacity="0.1"/>
<rect x="48" y="110" width="5" height="5" fill="white" fill-opacity="0.1"/>
<rect x="48" y="140" width="5" height="5" fill="white" fill-opacity="0.1"/>
<rect x="96" y="80" width="5" height="5" fill="white" fill-opacity="0.1"/>
<rect x="128" y="60" width="4" height="4" fill="white" fill-opacity="0.1"/>
<rect x="134" y="60" width="4" height="4" fill="white" fill-opacity="0.1"/>
<rect x="96" y="110" width="5" height="5" fill="white" fill-opacity="0.1"/>
<rect x="96" y="140" width="5" height="5" fill="white" fill-opacity="0.1"/>
<rect x="54" y="74" width="4" height="1" fill="white" fill-opacity="0.1"/>
<rect x="54" y="104" width="4" height="1" fill="white" fill-opacity="0.1"/>
<rect x="54" y="134" width="4" height="1" fill="white" fill-opacity="0.1"/>
<rect x="102" y="74" width="4" height="1" fill="white" fill-opacity="0.1"/>
<rect x="102" y="104" width="4" height="1" fill="white" fill-opacity="0.1"/>
<rect x="102" y="134" width="4" height="1" fill="white" fill-opacity="0.1"/>
<rect x="62" y="74" width="6" height="1" fill="white" fill-opacity="0.1"/>
<rect x="62" y="104" width="6" height="1" fill="white" fill-opacity="0.1"/>
<rect x="62" y="134" width="6" height="1" fill="white" fill-opacity="0.1"/>
<rect x="110" y="74" width="6" height="1" fill="white" fill-opacity="0.1"/>
<rect x="110" y="104" width="6" height="1" fill="white" fill-opacity="0.1"/>
<rect x="110" y="134" width="6" height="1" fill="white" fill-opacity="0.1"/>
<rect x="31" y="59" width="3" height="1" fill="white" fill-opacity="0.1"/>
<rect x="30" y="62" width="4" height="1" fill="white" fill-opacity="0.1"/>
<rect x="20" y="62" width="4" height="1" fill="white" fill-opacity="0.1"/>
<rect x="7" y="62" width="4" height="1" fill="white" fill-opacity="0.1"/>
<rect x="7" y="70" width="7" height="1" fill="white" fill-opacity="0.1"/>
<rect x="7" y="104" width="28" height="4" fill="white" fill-opacity="0.1"/>
<rect x="7" y="101" width="7" height="1" fill="white" fill-opacity="0.1"/>
<rect x="7" y="111" width="7" height="1" fill="white" fill-opacity="0.1"/>
<rect x="11" y="73" width="13" height="1" fill="white" fill-opacity="0.1"/>
<rect x="11" y="77" width="13" height="1" fill="white" fill-opacity="0.1"/>
<rect x="11" y="80" width="13" height="1" fill="white" fill-opacity="0.1"/>
<rect x="11" y="83" width="13" height="1" fill="white" fill-opacity="0.1"/>
<rect x="11" y="86" width="13" height="1" fill="white" fill-opacity="0.1"/>
<rect x="11" y="89" width="13" height="1" fill="white" fill-opacity="0.1"/>
<rect x="11" y="92" width="13" height="1" fill="white" fill-opacity="0.1"/>
<rect x="11" y="95" width="13" height="1" fill="white" fill-opacity="0.1"/>
<rect x="11" y="114" width="13" height="1" fill="white" fill-opacity="0.1"/>
<rect x="11" y="118" width="13" height="1" fill="white" fill-opacity="0.1"/>
<rect x="11" y="122" width="13" height="1" fill="white" fill-opacity="0.1"/>
<rect x="11" y="126" width="13" height="1" fill="white" fill-opacity="0.1"/>
<rect x="11" y="130" width="13" height="1" fill="white" fill-opacity="0.1"/>
<rect x="11" y="134" width="13" height="1" fill="white" fill-opacity="0.1"/>
<rect x="11" y="138" width="13" height="1" fill="white" fill-opacity="0.1"/>
<rect x="7" y="73" width="2" height="1" fill="white" fill-opacity="0.1"/>
<rect x="7" y="77" width="2" height="1" fill="white" fill-opacity="0.1"/>
<rect x="7" y="80" width="2" height="1" fill="white" fill-opacity="0.1"/>
<rect x="7" y="83" width="2" height="1" fill="white" fill-opacity="0.1"/>
<rect x="7" y="86" width="2" height="1" fill="white" fill-opacity="0.1"/>
<rect x="7" y="89" width="2" height="1" fill="white" fill-opacity="0.1"/>
<rect x="7" y="92" width="2" height="1" fill="white" fill-opacity="0.1"/>
<rect x="7" y="95" width="2" height="1" fill="white" fill-opacity="0.1"/>
<rect x="7" y="114" width="2" height="1" fill="white" fill-opacity="0.1"/>
<rect x="7" y="118" width="2" height="1" fill="white" fill-opacity="0.1"/>
<rect x="7" y="122" width="2" height="1" fill="white" fill-opacity="0.1"/>
<rect x="7" y="126" width="2" height="1" fill="white" fill-opacity="0.1"/>
<rect x="7" y="130" width="2" height="1" fill="white" fill-opacity="0.1"/>
<rect x="7" y="134" width="2" height="1" fill="white" fill-opacity="0.1"/>
<rect x="7" y="138" width="2" height="1" fill="white" fill-opacity="0.1"/>
<rect x="31" y="70" width="4" height="1" fill="white" fill-opacity="0.1"/>
<rect x="31" y="101" width="4" height="1" fill="white" fill-opacity="0.1"/>
<rect x="31" y="111" width="4" height="1" fill="white" fill-opacity="0.1"/>
</g>
<rect x="0.5" y="0.5" width="145" height="145" stroke="white" stroke-opacity="0.2"/>
<defs>
<clipPath id="clip0_4_2025">
<rect width="138" height="138" fill="white" transform="translate(4 4)"/>
</clipPath>
</defs>
</svg>
