<svg width="146" height="146" viewBox="0 0 146 146" fill="none" xmlns="http://www.w3.org/2000/svg">
<g clip-path="url(#clip0_4_1648)">
<rect x="4" y="4" width="138" height="14" fill="white" fill-opacity="0.1"/>
<rect x="44" y="66" width="95" height="15" fill="white" fill-opacity="0.1"/>
<rect x="44" y="84" width="95" height="16" fill="white" fill-opacity="0.1"/>
<rect x="44" y="103" width="95" height="16" fill="white" fill-opacity="0.1"/>
<rect x="44" y="122" width="95" height="16" fill="white" fill-opacity="0.1"/>
<rect x="44" y="141" width="95" height="16" fill="white" fill-opacity="0.1"/>
<rect x="7" y="7" width="19" height="3" fill="white" fill-opacity="0.1"/>
<rect x="49" y="26" width="47" height="3" fill="white" fill-opacity="0.1"/>
<rect x="7" y="45" width="37" height="6" fill="white" fill-opacity="0.1"/>
<rect x="46" y="45" width="37" height="6" fill="white" fill-opacity="0.1"/>
<rect x="85" y="45" width="54" height="6" fill="white" fill-opacity="0.1"/>
<rect x="125" y="46" width="13" height="4" fill="white" fill-opacity="0.1"/>
<rect x="7" y="43" width="7" height="1" fill="white" fill-opacity="0.1"/>
<rect x="7" y="60" width="7" height="1" fill="white" fill-opacity="0.1"/>
<rect x="45" y="61" width="18" height="1" fill="white" fill-opacity="0.1"/>
<rect x="7" y="66" width="28" height="1" fill="white" fill-opacity="0.1"/>
<rect x="31" y="60" width="3" height="1" fill="white" fill-opacity="0.1"/>
<rect x="128" y="59" width="5" height="5" fill="white" fill-opacity="0.1"/>
<rect x="48" y="71" width="4" height="4" fill="white" fill-opacity="0.1"/>
<rect x="48" y="89" width="4" height="4" fill="white" fill-opacity="0.1"/>
<rect x="48" y="108" width="4" height="4" fill="white" fill-opacity="0.1"/>
<rect x="48" y="127" width="4" height="4" fill="white" fill-opacity="0.1"/>
<rect x="55" y="69" width="17" height="1" fill="white" fill-opacity="0.1"/>
<rect x="55" y="87" width="17" height="1" fill="white" fill-opacity="0.1"/>
<rect x="55" y="106" width="17" height="1" fill="white" fill-opacity="0.1"/>
<rect x="55" y="125" width="17" height="1" fill="white" fill-opacity="0.1"/>
<rect x="55" y="76" width="10" height="1" fill="white" fill-opacity="0.1"/>
<rect x="55" y="94" width="10" height="1" fill="white" fill-opacity="0.1"/>
<rect x="55" y="113" width="10" height="1" fill="white" fill-opacity="0.1"/>
<rect x="55" y="132" width="10" height="1" fill="white" fill-opacity="0.1"/>
<rect x="68" y="76" width="6" height="1" fill="white" fill-opacity="0.1"/>
<rect x="68" y="94" width="6" height="1" fill="white" fill-opacity="0.1"/>
<rect x="68" y="113" width="6" height="1" fill="white" fill-opacity="0.1"/>
<rect x="68" y="132" width="6" height="1" fill="white" fill-opacity="0.1"/>
<rect x="97" y="73" width="11" height="1" fill="white" fill-opacity="0.1"/>
<rect x="97" y="91" width="11" height="1" fill="white" fill-opacity="0.1"/>
<rect x="97" y="110" width="11" height="1" fill="white" fill-opacity="0.1"/>
<rect x="97" y="129" width="11" height="1" fill="white" fill-opacity="0.1"/>
<rect x="123" y="71" width="13" height="5" fill="white" fill-opacity="0.1"/>
<rect x="123" y="89" width="13" height="5" fill="white" fill-opacity="0.1"/>
<rect x="123" y="108" width="13" height="5" fill="white" fill-opacity="0.1"/>
<rect x="123" y="127" width="13" height="5" fill="white" fill-opacity="0.1"/>
<rect x="55" y="72" width="26" height="2" fill="white" fill-opacity="0.1"/>
<rect x="55" y="90" width="26" height="2" fill="white" fill-opacity="0.1"/>
<rect x="55" y="109" width="26" height="2" fill="white" fill-opacity="0.1"/>
<rect x="55" y="128" width="26" height="2" fill="white" fill-opacity="0.1"/>
<rect x="135" y="59" width="5" height="5" fill="white" fill-opacity="0.1"/>
<rect x="30" y="63" width="4" height="1" fill="white" fill-opacity="0.1"/>
<rect x="20" y="63" width="4" height="1" fill="white" fill-opacity="0.1"/>
<rect x="7" y="63" width="4" height="1" fill="white" fill-opacity="0.1"/>
<rect x="7" y="71" width="7" height="1" fill="white" fill-opacity="0.1"/>
<rect x="7" y="105" width="28" height="4" fill="white" fill-opacity="0.1"/>
<rect x="7" y="102" width="7" height="1" fill="white" fill-opacity="0.1"/>
<rect x="7" y="112" width="7" height="1" fill="white" fill-opacity="0.1"/>
<rect x="11" y="74" width="13" height="1" fill="white" fill-opacity="0.1"/>
<rect x="11" y="78" width="13" height="1" fill="white" fill-opacity="0.1"/>
<rect x="11" y="81" width="13" height="1" fill="white" fill-opacity="0.1"/>
<rect x="11" y="84" width="13" height="1" fill="white" fill-opacity="0.1"/>
<rect x="11" y="87" width="13" height="1" fill="white" fill-opacity="0.1"/>
<rect x="11" y="90" width="13" height="1" fill="white" fill-opacity="0.1"/>
<rect x="11" y="93" width="13" height="1" fill="white" fill-opacity="0.1"/>
<rect x="11" y="96" width="13" height="1" fill="white" fill-opacity="0.1"/>
<rect x="11" y="115" width="13" height="1" fill="white" fill-opacity="0.1"/>
<rect x="11" y="119" width="13" height="1" fill="white" fill-opacity="0.1"/>
<rect x="11" y="123" width="13" height="1" fill="white" fill-opacity="0.1"/>
<rect x="11" y="127" width="13" height="1" fill="white" fill-opacity="0.1"/>
<rect x="11" y="131" width="13" height="1" fill="white" fill-opacity="0.1"/>
<rect x="11" y="135" width="13" height="1" fill="white" fill-opacity="0.1"/>
<rect x="11" y="139" width="13" height="1" fill="white" fill-opacity="0.1"/>
<rect x="7" y="74" width="2" height="1" fill="white" fill-opacity="0.1"/>
<rect x="7" y="78" width="2" height="1" fill="white" fill-opacity="0.1"/>
<rect x="7" y="81" width="2" height="1" fill="white" fill-opacity="0.1"/>
<rect x="7" y="84" width="2" height="1" fill="white" fill-opacity="0.1"/>
<rect x="7" y="87" width="2" height="1" fill="white" fill-opacity="0.1"/>
<rect x="7" y="90" width="2" height="1" fill="white" fill-opacity="0.1"/>
<rect x="7" y="93" width="2" height="1" fill="white" fill-opacity="0.1"/>
<rect x="7" y="96" width="2" height="1" fill="white" fill-opacity="0.1"/>
<rect x="7" y="115" width="2" height="1" fill="white" fill-opacity="0.1"/>
<rect x="7" y="119" width="2" height="1" fill="white" fill-opacity="0.1"/>
<rect x="7" y="123" width="2" height="1" fill="white" fill-opacity="0.1"/>
<rect x="7" y="127" width="2" height="1" fill="white" fill-opacity="0.1"/>
<rect x="7" y="131" width="2" height="1" fill="white" fill-opacity="0.1"/>
<rect x="7" y="135" width="2" height="1" fill="white" fill-opacity="0.1"/>
<rect x="7" y="139" width="2" height="1" fill="white" fill-opacity="0.1"/>
<rect x="31" y="71" width="4" height="1" fill="white" fill-opacity="0.1"/>
<rect x="31" y="102" width="4" height="1" fill="white" fill-opacity="0.1"/>
<rect x="31" y="112" width="4" height="1" fill="white" fill-opacity="0.1"/>
<rect x="46" y="43" width="7" height="1" fill="white" fill-opacity="0.1"/>
<rect x="85" y="43" width="7" height="1" fill="white" fill-opacity="0.1"/>
<rect x="7" y="14" width="8" height="2" fill="white" fill-opacity="0.1"/>
<rect x="20" y="14" width="8" height="2" fill="white" fill-opacity="0.1"/>
<rect x="32" y="7" width="6" height="2" fill="white" fill-opacity="0.1"/>
<rect x="41" y="7" width="6" height="2" fill="white" fill-opacity="0.1"/>
<rect x="49" y="32" width="48" height="1" fill="white" fill-opacity="0.1"/>
<rect x="56" y="35" width="34" height="1" fill="white" fill-opacity="0.1"/>
<rect x="50" y="7" width="6" height="2" fill="white" fill-opacity="0.1"/>
<rect x="59" y="7" width="6" height="2" fill="white" fill-opacity="0.1"/>
<rect x="111" y="6" width="13" height="5" fill="white" fill-opacity="0.1"/>
<rect x="126" y="6" width="13" height="5" fill="white" fill-opacity="0.1"/>
</g>
<rect x="0.5" y="0.5" width="145" height="145" stroke="white" stroke-opacity="0.2"/>
<defs>
<clipPath id="clip0_4_1648">
<rect width="138" height="138" fill="white" transform="translate(4 4)"/>
</clipPath>
</defs>
</svg>
