<svg width="1920" height="736" viewBox="0 0 1920 736" fill="none" xmlns="http://www.w3.org/2000/svg">
<g opacity="0.1">
<path d="M-215 194.439C-89.8333 101.714 236 -61.7559 538 26.1609C915.5 136.057 1110.5 194.439 1438 119.744C1813.17 34.1779 2015.33 176.982 2167 229.64" stroke="#000"/>
<path d="M2145 471.159C2019.83 378.434 1694 214.964 1392 302.881C1014.5 412.777 819.5 471.159 492 396.464C116.834 310.898 -85.3333 453.701 -237 506.36" stroke="#000"/>
<path d="M-237 423.079C-111.833 330.355 144 224.145 446 312.062C823.5 421.958 908 276.861 1448.5 276.861C1824.5 276.861 1993.33 405.622 2145 458.28" stroke="#000"/>
<path d="M2167 699.799C2041.83 607.074 1786 500.865 1484 588.782C1106.5 698.678 1022 553.581 481.5 553.581C105.5 553.581 -63.3333 682.342 -215 735" stroke="#000"/>
</g>
</svg>
